# xmcd
#
# Track frame offsets:
#   150
#   26499
#   43047
#   65293
#   103793
#   119400
#   133051
#   151241
#   168458
#   192862
#   206472
#   232681
#   243220
#   264246
#   288764
#
# Disc length: 4206 seconds
#
# Revision: 0
# Processed by: cddbd v1.5PL3 Copyright (c) Steve Scherf et al.
# Submitted via: Media_Universe 3.0
#
DISCID=c2106c0f
DTITLE=Verzamel CD - Blues - Popa, Junkhouse, Magic Slim
DYEAR=1900
DGENRE=Blues
TTITLE0=Strange face of love - Tito&Tarantula
TTITLE1=I love your shoes - Popa Chubby
TTITLE2=Stoop down Baby - Popa Chubby
TTITLE3=San Catri - Popa Chubby
TTITLE4=Come on in - R.L. Burnside
TTITLE5=Let my baby ride - R.L. Burnside
TTITLE6=This kitchen feels like home - Junkhouse
TTITLE7=Wait on me mama - Junkhouse
TTITLE8=Still a fool - Magic Slim
TTITLE9=Playin' with my mind - Magic Slim
TTITLE10=Crazy woman - Magic Slim
TTITLE11=Am I wrong? - Keb' Mo
TTITLE12=My way down - Chris Duarte Group
TTITLE13=Good morning Love - Luther Allison
TTITLE14=Silent night - Blues Company
EXTD=
EXTT0=
EXTT1=
EXTT2=
EXTT3=
EXTT4=
EXTT5=
EXTT6=
EXTT7=
EXTT8=
EXTT9=
EXTT10=
EXTT11=
EXTT12=
EXTT13=
EXTT14=
PLAYORDER=
